
<svg version="1.1"
	 xmlns="http://www.w3.org/2000/svg" xmlns:xlink="http://www.w3.org/1999/xlink" xmlns:a="http://ns.adobe.com/AdobeSVGViewerExtensions/3.0/"
	 x="0px" y="0px" width="675px" height="209.9px" viewBox="0 0 675 209.9" style="enable-background:new 0 0 675 209.9;"
	 xml:space="preserve">
<style type="text/css">	.st0{fill:#A43300;}</style>
<g>
	<path class="st0" d="M468.1,2c-4.1,1.3-7.8,3.4-11,6.3c-3.2,2.9-5.8,6.6-7.7,11c-1.9,4.5-2.9,9.9-2.9,16.4v17.1h-18.5h-2.6H408
		V34.4c0-6.1,2.6-9.2,7.9-9.2h12.1V0h-12.3c-4.4,0-8.6,0.7-12.7,2c-4.1,1.3-7.8,3.4-11,6.3c-3.2,2.9-5.8,6.6-7.7,11
		c-1.9,4.5-2.9,9.9-2.9,16.4v17.1h-25.7v22h25.7V187H408V74.8h17.4h2.6h18.5V187h26.8V74.8h20v-22h-20V34.4c0-6.1,2.6-9.2,7.9-9.2
		h12.1V0h-12.3C476.5,0,472.2,0.7,468.1,2z"/>
	<path class="st0" d="M567.2,62.6c-3.4-3.8-7.6-6.7-12.6-8.8c-5-2.1-10.5-3.2-16.7-3.2c-8.2,0-15.3,1.8-21.3,5.3
		c-6,3.5-10.5,8.1-13.7,13.9c-1.9,3.5-3.2,7.5-3.9,12.1c-0.7,4.6-1.1,9.5-1.1,15v43.9c0,5.4,0.3,10.4,1.1,15c0.7,4.6,2,8.6,3.9,12.1
		c3.2,5.8,7.7,10.4,13.7,13.9c5.9,3.5,13,5.3,21.3,5.3c6.1,0,11.6-1.1,16.5-3.2c4.9-2.1,9.1-5,12.6-8.7c3.5-3.5,6.2-7.7,8-12.6
		c1.8-4.9,2.8-10.2,2.8-15.8H551c-0.4,3-1.4,6-3,8.9c-1.7,3-5,4.5-10.1,4.5c-4,0-7.2-1.1-9.6-3.4c-2.4-2.3-3.5-5.5-3.5-9.7v-18.1h53
		V92.2c0-5.8-0.9-11.2-2.8-16.3C573.2,70.8,570.6,66.4,567.2,62.6z M551,107.9h-26.3V92.7c0-5.1,1.2-8.9,3.5-11.4
		c2.4-2.5,5.6-3.8,9.6-3.8c4,0,7.2,1.3,9.6,3.8c2.4,2.5,3.5,6.3,3.5,11.4V107.9z"/>
	<path class="st0" d="M675,128.9V92.2c0-5.8-0.9-11.2-2.8-16.3c-1.8-5.1-4.5-9.5-7.9-13.3c-3.4-3.8-7.6-6.7-12.6-8.8
		c-5-2.1-10.5-3.2-16.7-3.2c-8.2,0-15.3,1.8-21.3,5.3c-6,3.5-10.5,8.1-13.7,13.9c-1.9,3.5-3.2,7.5-3.9,12.1c-0.7,4.6-1.1,9.5-1.1,15
		v43.9c0,5.4,0.3,10.4,1.1,15c0.7,4.6,2,8.6,3.9,12.1c3.2,5.8,7.7,10.4,13.7,13.9c5.9,3.5,13,5.3,21.3,5.3c6.1,0,11.6-1.1,16.5-3.2
		c4.9-2.1,9.1-5,12.6-8.7c3.5-3.5,6.2-7.7,8-12.6c1.8-4.9,2.8-10.2,2.8-15.8h-26.8c-0.4,3-1.4,6-3,8.9c-1.7,3-5,4.5-10.1,4.5
		c-4,0-7.2-1.1-9.6-3.4c-2.4-2.3-3.5-5.5-3.5-9.7v-18.1H675z M621.9,92.7c0-5.1,1.2-8.9,3.5-11.4c2.4-2.5,5.6-3.8,9.6-3.8
		c4,0,7.2,1.3,9.6,3.8c2.4,2.5,3.5,6.3,3.5,11.4v15.2h-26.3V92.7z"/>
	<path class="st0" d="M263.7,92.3c0-0.5-0.1-1-0.1-1.4c0,0,0,0,0,0c-0.1-1.3-0.1-2.5-0.3-3.7c0-0.1,0-0.2,0-0.3c0,0,0,0,0,0
		c-0.2-2.2-0.5-4.4-0.9-6.5c0-0.2-0.1-0.4-0.1-0.6c0,0,0,0,0,0c-0.3-1.5-0.6-2.9-0.9-4.3l0,0c-0.1-0.5-0.2-0.9-0.4-1.3
		c-0.2-0.5-0.3-1.1-0.5-1.6l0,0c-0.2-0.6-0.4-1.2-0.6-1.8c-0.1-0.3-0.2-0.7-0.4-1c0,0,0,0,0-0.1c-0.6-1.6-1.3-3.1-2-4.6
		c0,0,0-0.1,0-0.1c-0.7-1.3-1.4-2.5-2.1-3.7c-0.2-0.4-0.5-0.8-0.7-1.1c0,0,0,0,0,0c-0.6-0.8-1.1-1.6-1.8-2.4c0,0,0,0,0,0
		c-0.4-0.5-0.8-1-1.3-1.5c-0.2-0.2-0.3-0.3-0.4-0.5l0,0c-0.1-0.1-0.1-0.1-0.2-0.2c-0.5-0.6-1.1-1.1-1.6-1.6l0,0
		c-0.6-0.6-1.3-1.2-2-1.7c-0.4-0.4-0.9-0.7-1.3-1.1c-9.7-7.3-23.9-10.9-43.2-10.9c-19.3,0-33.5,3.6-43.2,10.9
		c-0.5,0.3-0.9,0.7-1.3,1.1c-1.4,1.1-2.7,2.4-3.9,3.7c0,0,0,0,0,0c-0.6,0.6-1.1,1.2-1.6,1.9l0,0c0,0.1-0.1,0.1-0.1,0.2l0,0
		c-0.5,0.6-1,1.3-1.5,1.9c0,0,0,0,0,0c-0.1,0.1-0.1,0.2-0.2,0.2c0,0,0,0,0,0c-0.3,0.4-0.5,0.8-0.7,1.1c-1,1.6-2,3.3-2.8,5.2
		c-0.1,0.2-0.2,0.4-0.3,0.6c0,0,0,0,0,0c-0.1,0.2-0.2,0.4-0.2,0.6c0,0,0,0,0,0c-0.2,0.5-0.4,1-0.6,1.5c-0.2,0.4-0.3,0.8-0.5,1.3
		c0,0,0,0,0,0c0,0.1-0.1,0.3-0.1,0.4c-0.3,0.8-0.6,1.7-0.8,2.5c0,0,0,0,0,0c0,0.2-0.1,0.3-0.1,0.5c-0.2,0.9-0.5,1.7-0.7,2.6
		c0,0,0,0,0,0c-0.1,0.3-0.1,0.7-0.2,1c-0.7,3.3-1.2,6.8-1.5,10.5c0,0.2,0,0.5-0.1,0.7v0c-0.1,1-0.1,2-0.2,3.1c0,0.2,0,0.4,0,0.6
		c0,0,0,0,0,0c0,1.3-0.1,2.5-0.1,3.8c0,9.2,5,17,9.9,22.4c4.6,5,9,8,9.1,8l0.8,0.5l-0.4,0.8c0,0.1-4.7,9.9-4.7,20
		c0,9.2,2.9,16.6,8.6,21.9c7.6,7.2,20.3,10.8,37.7,10.8c17.4,0,30.1-3.6,37.7-10.8c5.7-5.4,8.6-12.7,8.6-21.9c0-10-4.7-19.9-4.7-20
		l-0.4-0.8l0.7-0.5c0.1-0.1,4.6-3,9.1-8c4.9-5.4,10-13.2,10-22.3C263.8,94.9,263.7,93.6,263.7,92.3
		C263.7,92.3,263.7,92.3,263.7,92.3z"/>
	<path class="st0" d="M344,59.6c-2.6-2.6-5.6-4.5-8.9-5.6c-3.3-1.1-6.7-1.7-10-1.7c-1.7,0-19.7,0-44.6,0
		c-3.3-5.3-7.2-10.2-11.7-14.6c-16.8-16.4-41-25.1-68.2-24.4c-34.1,0.8-60.7,15.2-75.4,39c-11.6,0-18.6,0-18.6,0v0.1
		c-0.8-0.1-1.6-0.1-2.4-0.1c-7.2,0-12.8,1.3-16.8,3.9c-4,2.6-7.7,5.8-11,9.5c-2.5-3.3-5.6-6.4-9.5-9.2c-3.9-2.8-8.7-4.2-14.4-4.2
		c-3.9,0-24.1,0-38.2,0C6.2,52.3,0,58.4,0,66.4S0,187,0,187h26.8V97.4c0-5.9,1-10.5,2.9-13.7c1.9-3.2,5.4-4.7,10.5-4.7
		c4.2,0,7.4,1.4,9.7,4.2c2.3,2.8,3.4,6.7,3.4,11.6V187h26.8V97.4c0-5.9,1-10.5,2.9-13.7c1.9-3.2,5.4-4.7,10.5-4.7
		c4.2,0,7.4,1.4,9.7,4.2c2.3,2.8,3.4,6.7,3.4,11.6V187h26.8h16.8c11.6,13.3,29.4,21.9,48.9,22.8l0.2,0c1.2,0.1,2.4,0.1,3.5,0.1
		c1.1,0,2.3,0,3.4-0.1l0.2,0c19.6-0.9,37.3-9.6,49-22.8h44V97.4c0-5.9,1-10.5,2.9-13.7c1.9-3.2,5.4-4.7,10.5-4.7
		c4.2,0,7.4,1.4,9.7,4.2c2.3,2.8,3.4,6.7,3.4,11.6V187h26.8V84.8c0-5.9-0.8-11-2.4-15.1C348.8,65.6,346.7,62.2,344,59.6z
		 M263.4,154.6c-1.2,1.4-2.2,2.9-3.1,4.5c-0.7,2.1-1.4,4.1-2.3,6c-2.9,8.4-8.3,15.9-15.4,21.9c-9.6,8-22.4,13.2-36.6,13.8
		c-0.1,0-0.1,0-0.2,0c-1,0.1-2,0.1-3.1,0.1c-1,0-2,0-3-0.1c-0.1,0-0.1,0-0.2,0c-14.2-0.7-27-5.8-36.6-13.8
		c-7.1-5.9-12.5-13.4-15.4-21.9c-0.9-2-1.7-4-2.4-6.1c-0.8-1.5-1.8-3-3-4.3c-13.5-15-21.5-34.9-20.8-56.8
		c0.5-18.6,5.9-33.8,14.6-45.6c14.4-19.3,38-29.4,64.8-30c28.5-0.7,53.8,9.7,68.9,30c9.2,12.4,14.5,28.4,14.5,48
		C284.2,121.1,276.4,140.2,263.4,154.6z"/>
</g>
</svg>